<?xml version="1.0" standalone="yes"?>
<svg xmlns="http://www.w3.org/2000/svg" width="500" height="500">
<path style="fill:#010101; stroke:none;" d="M0 0L0 500L500 500L500 0L0 0z"/>
<path style="fill:#8e6888; stroke:none;" d="M281 218L281 219L294 219L281 218z"/>
<path style="fill:#644960; stroke:none;" d="M294 218L302 226L294 218z"/>
<path style="fill:#fdbaf3; stroke:none;" d="M259 248L224 245L210.738 246.028L205.8 265L195 321L212 321C213.64 312.542 217.556 288.493 231.671 301.318C236.992 306.152 238.005 316.31 244.213 319.972C248.652 322.591 256.986 321 262 321L249 297C257.046 294.682 264.008 289.709 267.672 282C269.265 278.649 269.107 272.166 272.318 270.028C282.46 263.274 312.116 277.984 316.566 261.995C318.002 256.838 317 250.32 317 245C317 240.567 317.88 234.933 315.258 231.059C312.031 226.292 307.411 228.17 303 225.972C299.343 224.15 297.113 220.349 293 219.318C283.367 216.903 279.654 222.145 272 225.972C267.514 228.215 262.955 226.708 260.179 232.019C257.852 236.472 259 243.121 259 248z"/>
<path style="fill:#644960; stroke:none;" d="M274 228C281.413 222.804 284.858 221 294 221C285.948 217.621 278.712 221.334 274 228z"/>
<path style="fill:#010101; stroke:none;" d="M281 222.027C276.96 224.019 264.31 228.495 262.179 232.144C257.345 240.423 262.501 250.064 267.907 256C270.492 258.838 272.367 263.853 275.495 265.972C278.016 267.679 282.121 267 285 267C292.357 267 304.12 269.228 310.891 266.142C316.994 263.361 315 253.415 315 248C315 243.337 316.263 236.326 313.821 232.144C311.446 228.077 306.789 228.895 303 227.411C295.517 224.481 290.099 217.54 281 222.027z"/>
<path style="fill:#8e6888; stroke:none;" d="M266.667 226.333L267.333 226.667L266.667 226.333z"/>
<path style="fill:#b584ae; stroke:none;" d="M268 226L268 227L273 227L268 226M302 226L302 227L308 227L302 226z"/>
<path style="fill:#8e6888; stroke:none;" d="M308.667 226.333L309.333 226.667L308.667 226.333z"/>
<path style="fill:#644960; stroke:none;" d="M263 227L264 228L263 227M312 227L313 228L312 227z"/>
<path style="fill:#8e6888; stroke:none;" d="M262 228L263 229L262 228z"/>
<path style="fill:#b584ae; stroke:none;" d="M265 228L266 229L265 228z"/>
<path style="fill:#644960; stroke:none;" d="M266.667 228.333L267.333 228.667L266.667 228.333M308.667 228.333L309.333 228.667L308.667 228.333z"/>
<path style="fill:#8e6888; stroke:none;" d="M310 228L311 229L310 228M313 228L314 229L313 228z"/>
<path style="fill:#b584ae; stroke:none;" d="M261 229L262 230L261 229M263 229L264 230L263 229M312 229L313 230L312 229M314 229L315 230L314 229z"/>
<path style="fill:#8e6888; stroke:none;" d="M260 230L261 231L260 230z"/>
<path style="fill:#b584ae; stroke:none;" d="M262 230L263 231L262 230M313 230L314 231L313 230z"/>
<path style="fill:#8e6888; stroke:none;" d="M315 230L316 231L315 230z"/>
<path style="fill:#b584ae; stroke:none;" d="M314 231L315 232L314 231z"/>
<path style="fill:#644960; stroke:none;" d="M316 231L317 232L316 231z"/>
<path style="fill:#b584ae; stroke:none;" d="M259 232L260 233L259 232z"/>
<path style="fill:#644960; stroke:none;" d="M261 232L262 233L261 232M284 232L285 233L284 232z"/>
<path style="fill:#8e6888; stroke:none;" d="M285 232L286 233L285 232z"/>
<path style="fill:#b584ae; stroke:none;" d="M286 232L286 233L290 233L286 232z"/>
<path style="fill:#8e6888; stroke:none;" d="M290 232L291 233L290 232z"/>
<path style="fill:#644960; stroke:none;" d="M291 232L292 233L291 232M314 232L315 233L314 232z"/>
<path style="fill:#b584ae; stroke:none;" d="M316 232L317 233L316 232z"/>
<path style="fill:#644960; stroke:none;" d="M281 233L282 234L281 233z"/>
<path style="fill:#b584ae; stroke:none;" d="M282 233L284 235L282 233z"/>
<path style="fill:#fdbaf3; stroke:none;" d="M283 233L283 234C297.988 234.01 310.082 253.61 291 259.343C274.971 264.159 272.064 242.79 283 235C276.361 234.112 273.794 242.653 274.048 248C274.412 255.679 280.483 260.799 288 260.944C299.578 261.168 306.435 247.399 299.347 238.105C295.251 232.734 289.082 233.001 283 233z"/>
<path style="fill:#b584ae; stroke:none;" d="M293 233L294 234L293 233z"/>
<path style="fill:#644960; stroke:none;" d="M294 233L295 234L294 233z"/>
<path style="fill:#b584ae; stroke:none;" d="M315 233L316 234L315 233z"/>
<path style="fill:#8e6888; stroke:none;" d="M260.333 234.667L260.667 235.333L260.333 234.667z"/>
<path style="fill:#b584ae; stroke:none;" d="M280 234L281 235L280 234z"/>
<path style="fill:#644960; stroke:none;" d="M284.667 234.333L285.333 234.667L284.667 234.333z"/>
<path style="fill:#010101; stroke:none;" d="M286 234.519C269.633 237.153 274.419 261.77 291 258.772C306.456 255.976 301.39 232.041 286 234.519z"/>
<path style="fill:#644960; stroke:none;" d="M290.667 234.333L291.333 234.667L290.667 234.333z"/>
<path style="fill:#b584ae; stroke:none;" d="M292 234L293 235L292 234M295 234L296 235L295 234z"/>
<path style="fill:#8e6888; stroke:none;" d="M315 234L316 235L315 234z"/>
<path style="fill:#644960; stroke:none;" d="M278 235L279 236L278 235z"/>
<path style="fill:#b584ae; stroke:none;" d="M281 235L282 236L281 235M294 235L295 236L294 235z"/>
<path style="fill:#644960; stroke:none;" d="M297 235L298 236L297 235M315 235L315 261L316 261L315 235M317 235L317 261L318 261L317 235M258 236L257 248C260.045 245.339 259.478 239.521 258 236M260 236L260 249L261 249L260 236M277 236L278 237L277 236M280 236L281 237L280 236M295 236L296 237L295 236z"/>
<path style="fill:#8e6888; stroke:none;" d="M298 236L299 237L298 236z"/>
<path style="fill:#644960; stroke:none;" d="M276 237L277 238L276 237M299 237L300 238L299 237z"/>
<path style="fill:#b584ae; stroke:none;" d="M275 239L276 240L275 239z"/>
<path style="fill:#644960; stroke:none;" d="M277 239L278 240L277 239M298 239L299 240L298 239z"/>
<path style="fill:#b584ae; stroke:none;" d="M300 239L301 240L300 239z"/>
<path style="fill:#644960; stroke:none;" d="M274 240L275 241L274 240z"/>
<path style="fill:#b584ae; stroke:none;" d="M276 240L277 241L276 240M299 240L300 241L299 240z"/>
<path style="fill:#644960; stroke:none;" d="M301 240L302 241L301 240z"/>
<path style="fill:#b584ae; stroke:none;" d="M274 241L275 242L274 241z"/>
<path style="fill:#644960; stroke:none;" d="M276 241L277 242L276 241z"/>
<path style="fill:#b584ae; stroke:none;" d="M301 241L302 242L301 241M300 242L301 243L300 242z"/>
<path style="fill:#644960; stroke:none;" d="M273 243L274 244L273 243z"/>
<path style="fill:#8e6888; stroke:none;" d="M275 243L276 244L275 243z"/>
<path style="fill:#644960; stroke:none;" d="M300.333 243.667L300.667 244.333L300.333 243.667M302 243L303 244L302 243z"/>
<path style="fill:#8e6888; stroke:none;" d="M210 244L210 245L242 245L210 244z"/>
<path style="fill:#644960; stroke:none;" d="M242 244L242 245L246 245L242 244z"/>
<path style="fill:#8e6888; stroke:none;" d="M273.333 244.667L273.667 245.333L273.333 244.667z"/>
<path style="fill:#644960; stroke:none;" d="M275.333 244.667L275.667 245.333L275.333 244.667z"/>
<path style="fill:#8e6888; stroke:none;" d="M302 244L303 245L302 244M209 245L210 246L209 245z"/>
<path style="fill:#b584ae; stroke:none;" d="M249 245L250 246L249 245z"/>
<path style="fill:#8e6888; stroke:none;" d="M250 245L251 246L250 245z"/>
<path style="fill:#644960; stroke:none;" d="M251 245L252 246L251 245z"/>
<path style="fill:#b584ae; stroke:none;" d="M302 245L302 249L303 249L302 245M209 246L210 247L209 246z"/>
<path style="fill:#8e6888; stroke:none;" d="M254 246L255 247L254 246z"/>
<path style="fill:#644960; stroke:none;" d="M255 246L256 247L255 246z"/>
<path style="fill:#b584ae; stroke:none;" d="M273.333 246.667L273.667 247.333L273.333 246.667z"/>
<path style="fill:#8e6888; stroke:none;" d="M273.333 248.667L273.667 249.333L273.333 248.667z"/>
<path style="fill:#644960; stroke:none;" d="M275.333 248.667L275.667 249.333L275.333 248.667M208 249L209 250L208 249M261 249L262 250L261 249M300 249L301 250L300 249z"/>
<path style="fill:#8e6888; stroke:none;" d="M302 249L303 250L302 249M208 250L209 251L208 250M262 250L263 251L262 250z"/>
<path style="fill:#644960; stroke:none;" d="M273 250L274 251L273 250z"/>
<path style="fill:#8e6888; stroke:none;" d="M275 250L276 251L275 250M300 250L301 251L300 250z"/>
<path style="fill:#644960; stroke:none;" d="M302 250L303 251L302 250z"/>
<path style="fill:#b584ae; stroke:none;" d="M208 251L209 252L208 251M263 251L264 252L263 251M264 252L265 253L264 252z"/>
<path style="fill:#8e6888; stroke:none;" d="M274 252L275 253L274 252z"/>
<path style="fill:#644960; stroke:none;" d="M276 252L277 253L276 252M299 252L300 253L299 252z"/>
<path style="fill:#b584ae; stroke:none;" d="M301 252L302 253L301 252M265 253L266 254L265 253z"/>
<path style="fill:#644960; stroke:none;" d="M207 254L208 255L207 254z"/>
<path style="fill:#8e6888; stroke:none;" d="M266 254L267 255L266 254M275 254L276 255L275 254M277 254L278 255L277 254M298 254L299 255L298 254M300 254L301 255L300 254M207 255L208 256L207 255z"/>
<path style="fill:#644960; stroke:none;" d="M267 255L268 256L267 255z"/>
<path style="fill:#b584ae; stroke:none;" d="M276 255L277 256L276 255z"/>
<path style="fill:#644960; stroke:none;" d="M278 255L279 256L278 255M297 255L298 256L297 255z"/>
<path style="fill:#b584ae; stroke:none;" d="M207 256L208 257L207 256z"/>
<path style="fill:#644960; stroke:none;" d="M268 256L271 267L275 267L268 256M279 256L280 257L279 256M296 256L297 257L296 256z"/>
<path style="fill:#b584ae; stroke:none;" d="M268 257L269 258L268 257z"/>
<path style="fill:#8e6888; stroke:none;" d="M280 257L281 258L280 257M295 257L296 258L295 257z"/>
<path style="fill:#b584ae; stroke:none;" d="M279 258L280 259L279 258z"/>
<path style="fill:#8e6888; stroke:none;" d="M282 258L283 259L282 258z"/>
<path style="fill:#644960; stroke:none;" d="M293 258L294 259L293 258z"/>
<path style="fill:#b584ae; stroke:none;" d="M296 258L297 259L296 258z"/>
<path style="fill:#644960; stroke:none;" d="M206 259L207 260L206 259z"/>
<path style="fill:#b584ae; stroke:none;" d="M224 259L225 260L224 259z"/>
<path style="fill:#644960; stroke:none;" d="M220 285C228.277 284.34 228.461 270.775 229 264L252 266C248.108 260.777 230.662 253.987 225.164 260.603C221.161 265.422 220.489 278.858 220 285z"/>
<path style="fill:#8e6888; stroke:none;" d="M241.667 259.333L242.333 259.667L241.667 259.333z"/>
<path style="fill:#b584ae; stroke:none;" d="M243.667 259.333L244.333 259.667L243.667 259.333z"/>
<path style="fill:#8e6888; stroke:none;" d="M269 259L270 260L269 259M280 259L281 260L280 259z"/>
<path style="fill:#b584ae; stroke:none;" d="M284 259L285 260L284 259z"/>
<path style="fill:#8e6888; stroke:none;" d="M285 259L286 260L285 259z"/>
<path style="fill:#644960; stroke:none;" d="M286 259L286 260L290 260L286 259z"/>
<path style="fill:#8e6888; stroke:none;" d="M290 259L291 260L290 259z"/>
<path style="fill:#b584ae; stroke:none;" d="M291 259L292 260L291 259z"/>
<path style="fill:#8e6888; stroke:none;" d="M295 259L296 260L295 259M206 260L207 261L206 260M224 260L225 261L224 260M246 260L247 261L246 260z"/>
<path style="fill:#b584ae; stroke:none;" d="M269 260L270 261L269 260z"/>
<path style="fill:#8e6888; stroke:none;" d="M282 260L283 261L282 260z"/>
<path style="fill:#b584ae; stroke:none;" d="M283 260L284 261L283 260z"/>
<path style="fill:#8e6888; stroke:none;" d="M293 260L294 261L293 260z"/>
<path style="fill:#b584ae; stroke:none;" d="M206 261L207 262L206 261z"/>
<path style="fill:#8e6888; stroke:none;" d="M248 261L249 262L248 261z"/>
<path style="fill:#644960; stroke:none;" d="M285 261L286 262L285 261z"/>
<path style="fill:#8e6888; stroke:none;" d="M286 261L286 262L290 262L286 261z"/>
<path style="fill:#644960; stroke:none;" d="M290 261L291 262L290 261z"/>
<path style="fill:#8e6888; stroke:none;" d="M315 261L316 262L315 261M249 262L250 263L249 262M270 262L271 263L270 262z"/>
<path style="fill:#b584ae; stroke:none;" d="M223.333 263.667L223.667 264.333L223.333 263.667z"/>
<path style="fill:#8e6888; stroke:none;" d="M250 263L251 264L250 263z"/>
<path style="fill:#b584ae; stroke:none;" d="M270 263L270 267L271 267L270 263z"/>
<path style="fill:#8e6888; stroke:none;" d="M314 263L315 264L314 263M316 263L317 264L316 263z"/>
<path style="fill:#644960; stroke:none;" d="M205 264L206 265L205 264z"/>
<path style="fill:#010101; stroke:none;" d="M229 264L225 285C232.333 285 241.62 286.301 247.671 281.197C251.297 278.137 254.835 268.665 249.682 265.318C244.723 262.097 234.698 264 229 264z"/>
<path style="fill:#b584ae; stroke:none;" d="M251 264L252 265L251 264z"/>
<path style="fill:#8e6888; stroke:none;" d="M205 265L206 266L205 265M223 265L224 266L223 265z"/>
<path style="fill:#644960; stroke:none;" d="M312 265L313 266L312 265M315 265L316 266L315 265z"/>
<path style="fill:#b584ae; stroke:none;" d="M205 266L206 267L205 266M252 266L253 267L252 266z"/>
<path style="fill:#8e6888; stroke:none;" d="M311 266L312 267L311 266z"/>
<path style="fill:#644960; stroke:none;" d="M314 266L315 267L314 266M252 267L252 273L253 273L252 267z"/>
<path style="fill:#b584ae; stroke:none;" d="M271 267L271 268L275 268L271 267z"/>
<path style="fill:#8e6888; stroke:none;" d="M275 267L275 268L309 268L275 267z"/>
<path style="fill:#b584ae; stroke:none;" d="M309 267L310 268L309 267z"/>
<path style="fill:#644960; stroke:none;" d="M313 267L314 268L313 267z"/>
<path style="fill:#b584ae; stroke:none;" d="M222.333 268.667L222.667 269.333L222.333 268.667M310 268L311 269L310 268z"/>
<path style="fill:#644960; stroke:none;" d="M311 268L312 269L311 268M204 269L205 270L204 269M271 269C270.447 281.682 262.424 293.344 250 297L262 321L246 321C248.82 328.669 260.215 326 267 326L254 302C268.864 298.437 277.438 283.776 275 269L271 269z"/>
<path style="fill:#8e6888; stroke:none;" d="M204 270L205 271L204 270M222 270L223 271L222 270z"/>
<path style="fill:#b584ae; stroke:none;" d="M270 270L270 274L271 274L270 270M204 271L205 272L204 271M221.333 273.667L221.667 274.333L221.333 273.667z"/>
<path style="fill:#8e6888; stroke:none;" d="M252 273L253 274L252 273z"/>
<path style="fill:#644960; stroke:none;" d="M203 274L204 275L203 274z"/>
<path style="fill:#b584ae; stroke:none;" d="M252 274L253 275L252 274z"/>
<path style="fill:#8e6888; stroke:none;" d="M270 274L271 275L270 274M203 275L204 276L203 275M221 275L222 276L221 275z"/>
<path style="fill:#b584ae; stroke:none;" d="M203 276L204 277L203 276z"/>
<path style="fill:#644960; stroke:none;" d="M251 276L252 277L251 276z"/>
<path style="fill:#b584ae; stroke:none;" d="M269 277L270 278L269 277M220.333 278.667L220.667 279.333L220.333 278.667z"/>
<path style="fill:#644960; stroke:none;" d="M250 278L251 279L250 278z"/>
<path style="fill:#8e6888; stroke:none;" d="M269 278L270 279L269 278z"/>
<path style="fill:#644960; stroke:none;" d="M202 279L203 280L202 279M249 279L250 280L249 279z"/>
<path style="fill:#8e6888; stroke:none;" d="M202 280L203 281L202 280M220 280L221 281L220 280z"/>
<path style="fill:#b584ae; stroke:none;" d="M268 280L269 281L268 280M202 281L203 282L202 281z"/>
<path style="fill:#644960; stroke:none;" d="M247 281L248 282L247 281z"/>
<path style="fill:#8e6888; stroke:none;" d="M246 282L247 283L246 282z"/>
<path style="fill:#b584ae; stroke:none;" d="M267 282L268 283L267 282M219 283C219.729 286.403 221.806 285.987 225 286L225 285L219 283z"/>
<path style="fill:#8e6888; stroke:none;" d="M244 283L245 284L244 283z"/>
<path style="fill:#644960; stroke:none;" d="M201 284L202 285L201 284M240.667 284.333L241.333 284.667L240.667 284.333z"/>
<path style="fill:#b584ae; stroke:none;" d="M242 284L243 285L242 284M266 284L267 285L266 284z"/>
<path style="fill:#8e6888; stroke:none;" d="M201 285L202 286L201 285M225 285L225 286L236 286L225 285z"/>
<path style="fill:#b584ae; stroke:none;" d="M236 285L236 286L239 286L236 285M201 286L202 287L201 286z"/>
<path style="fill:#8e6888; stroke:none;" d="M265 286L266 287L265 286M264 287L265 288L264 287z"/>
<path style="fill:#b584ae; stroke:none;" d="M263 288L264 289L263 288z"/>
<path style="fill:#644960; stroke:none;" d="M200 289L201 290L200 289z"/>
<path style="fill:#b584ae; stroke:none;" d="M262 289L263 290L262 289z"/>
<path style="fill:#8e6888; stroke:none;" d="M200 290L201 291L200 290z"/>
<path style="fill:#b584ae; stroke:none;" d="M261 290L262 291L261 290M200 291L201 292L200 291z"/>
<path style="fill:#8e6888; stroke:none;" d="M260 291L261 292L260 291M259 292L260 293L259 292z"/>
<path style="fill:#b584ae; stroke:none;" d="M257 293L258 294L257 293z"/>
<path style="fill:#644960; stroke:none;" d="M199 294L200 295L199 294z"/>
<path style="fill:#b584ae; stroke:none;" d="M255 294L256 295L255 294z"/>
<path style="fill:#8e6888; stroke:none;" d="M256 294L257 295L256 294M199 295L200 296L199 295z"/>
<path style="fill:#b584ae; stroke:none;" d="M253 295L254 296L253 295z"/>
<path style="fill:#8e6888; stroke:none;" d="M254 295L255 296L254 295z"/>
<path style="fill:#b584ae; stroke:none;" d="M199 296L200 297L199 296M251 296L252 297L251 296z"/>
<path style="fill:#8e6888; stroke:none;" d="M252 296L253 297L252 296M249 297L250 298L249 297z"/>
<path style="fill:#b584ae; stroke:none;" d="M249 298L250 299L249 298z"/>
<path style="fill:#644960; stroke:none;" d="M198 299L199 300L198 299z"/>
<path style="fill:#b584ae; stroke:none;" d="M217 299L217 300L231 300L217 299z"/>
<path style="fill:#8e6888; stroke:none;" d="M250 299L251 300L250 299M198 300L199 301L198 300M216.333 300.667L216.667 301.333L216.333 300.667z"/>
<path style="fill:#644960; stroke:none;" d="M213 321L200 321L199 326L216.262 324.972L221 305L234 305C231.736 300.241 221.292 296.636 217.164 301.603C213.821 305.627 213.405 315.911 213 321z"/>
<path style="fill:#b584ae; stroke:none;" d="M250 300L251 301L250 300M198 301L199 302L198 301M232 301L233 302L232 301z"/>
<path style="fill:#8e6888; stroke:none;" d="M251 301L252 302L251 301z"/>
<path style="fill:#b584ae; stroke:none;" d="M215.333 303.667L215.667 304.333L215.333 303.667z"/>
<path style="fill:#8e6888; stroke:none;" d="M233 303L234 304L233 303z"/>
<path style="fill:#b584ae; stroke:none;" d="M252 303L253 304L252 303z"/>
<path style="fill:#644960; stroke:none;" d="M197 304L198 305L197 304z"/>
<path style="fill:#b584ae; stroke:none;" d="M234 304L235 305L234 304z"/>
<path style="fill:#8e6888; stroke:none;" d="M197 305L198 306L197 305M215.333 305.667L215.667 306.333L215.333 305.667z"/>
<path style="fill:#b584ae; stroke:none;" d="M253 305L254 306L253 305M197 306L198 307L197 306z"/>
<path style="fill:#8e6888; stroke:none;" d="M235 306L236 307L235 306M254 306L255 307L254 306z"/>
<path style="fill:#b584ae; stroke:none;" d="M254 307L255 308L254 307M214.333 308.667L214.667 309.333L214.333 308.667z"/>
<path style="fill:#8e6888; stroke:none;" d="M236 308L237 309L236 308M255 308L256 309L255 308z"/>
<path style="fill:#644960; stroke:none;" d="M196 309L197 310L196 309z"/>
<path style="fill:#8e6888; stroke:none;" d="M196 310L197 311L196 310M214.333 310.667L214.667 311.333L214.333 310.667z"/>
<path style="fill:#644960; stroke:none;" d="M237 310L238 311L237 310z"/>
<path style="fill:#8e6888; stroke:none;" d="M256 310L257 311L256 310z"/>
<path style="fill:#b584ae; stroke:none;" d="M196 311L197 312L196 311M238 311L239 312L238 311z"/>
<path style="fill:#644960; stroke:none;" d="M238 312L239 313L238 312z"/>
<path style="fill:#b584ae; stroke:none;" d="M257 312L258 313L257 312M213.333 313.667L213.667 314.333L213.333 313.667M239 313L240 314L239 313z"/>
<path style="fill:#644960; stroke:none;" d="M195 314L196 315L195 314z"/>
<path style="fill:#b584ae; stroke:none;" d="M258 314L259 315L258 314z"/>
<path style="fill:#8e6888; stroke:none;" d="M195 315L196 316L195 315M213.333 315.667L213.667 316.333L213.333 315.667M240 315L241 316L240 315M259 315L260 316L259 315z"/>
<path style="fill:#b584ae; stroke:none;" d="M195 316L196 317L195 316M259 316L260 317L259 316z"/>
<path style="fill:#644960; stroke:none;" d="M241 317L242 318L241 317z"/>
<path style="fill:#8e6888; stroke:none;" d="M260 317L261 318L260 317z"/>
<path style="fill:#b584ae; stroke:none;" d="M212.333 318.667L212.667 319.333L212.333 318.667z"/>
<path style="fill:#644960; stroke:none;" d="M194 319L195 320L194 319M242 319L243 320L242 319z"/>
<path style="fill:#b584ae; stroke:none;" d="M261 319L262 320L261 319z"/>
<path style="fill:#8e6888; stroke:none;" d="M194 320L195 321L194 320M212 320L213 321L212 320z"/>
<path style="fill:#b584ae; stroke:none;" d="M243 320L244 321L243 320z"/>
</svg>
